<svg id="Layer_1" enable-background="new 0 0 512.016 512.016" height="512" viewBox="0 0 512.016 512.016" width="512" xmlns="http://www.w3.org/2000/svg"><path d="m243.454 339.865c-1.132.076-2.266.113-3.395.113-13.081.001-25.796-5.021-35.351-14.053l-52.262-48.219c-8.118-7.49-8.627-20.144-1.137-28.262 7.489-8.118 20.142-8.628 28.261-1.137l52.359 48.309c.076.07.152.142.227.213 3.16 3.008 6.765 3.251 8.637 3.124 1.797-.12 5.146-.788 7.83-3.868l82.028-116.587c6.356-9.033 18.832-11.203 27.865-4.849 9.034 6.356 11.205 18.832 4.849 27.866l-82.482 117.232c-.245.348-.5.688-.767 1.019-8.986 11.184-22.348 18.145-36.662 19.099zm62.91-300.404c91.244 21.781 159.377 102.743 165.688 196.885.708 10.566 9.499 18.663 19.935 18.663.449 0 .903-.016 1.358-.046 11.021-.738 19.356-10.271 18.617-21.293-3.699-55.176-24.714-106.818-60.773-149.346-35.248-41.57-83.383-71.32-135.538-83.77-10.741-2.564-21.533 4.066-24.097 14.81-2.564 10.744 4.066 21.532 14.81 24.097zm-100.713 433.093c-91.243-21.781-159.377-102.743-165.688-196.884-.739-11.021-10.27-19.355-21.293-18.617-11.021.738-19.356 10.271-18.617 21.293 3.699 55.176 24.714 106.818 60.773 149.346 35.248 41.57 83.383 71.32 135.538 83.77 1.561.373 3.123.552 4.66.552 9.044 0 17.245-6.179 19.437-15.361 2.565-10.746-4.065-21.534-14.81-24.099zm249.709 4.911c-22.916 22.922-47.865 34.542-74.159 34.542-.189 0-.376 0-.565-.001-29.605-.189-53.816-13.55-64.341-23.359-17.452 8.546-29.424 12.799-30.699 13.244-2.18.761-4.403 1.122-6.588 1.122-8.27 0-16.006-5.169-18.883-13.419-3.636-10.421 1.858-21.815 12.272-25.463.265-.093 9.799-3.508 24.204-10.469-4.505-15.788-4.593-29.429-4.593-30.38 0-26.59 11.617-51.692 34.529-74.61 57.097-57.11 152.686-56.911 164.989-56.635 10.881-.254 20.016 8.299 20.419 19.232.16 4.316 3.217 106.379-56.585 166.196zm15.948-144.761c-28.981 2.14-82.959 10.718-116.482 44.249-15.354 15.357-22.817 30.512-22.817 46.329 0 2.568.315 6.165.985 10.154 21.22-13.448 44.618-31.476 64.189-54.411 7.171-8.402 19.795-9.399 28.196-2.231 8.402 7.17 9.401 19.794 2.231 28.196-22.255 26.08-48.302 46.399-71.976 61.547 6.538 2.846 15.255 5.406 25.256 5.469.102.001.204.001.306.001 15.516 0 30.526-7.468 45.876-22.822 33.504-33.513 42.09-87.468 44.236-116.481zm-471.238-131.958c-.16-4.315-3.217-106.379 56.585-166.196 23.082-23.087 48.234-34.712 74.725-34.542 29.605.188 53.816 13.55 64.341 23.359 17.452-8.546 29.424-12.799 30.699-13.244 10.429-3.641 21.833 1.866 25.471 12.297 3.636 10.421-1.858 21.815-12.272 25.463-.265.093-9.799 3.508-24.204 10.469 4.505 15.788 4.593 29.429 4.593 30.38 0 26.59-11.617 51.692-34.529 74.61-53.217 53.23-139.879 56.673-161.367 56.673-1.567 0-2.786-.019-3.622-.037-.149.004-.299.005-.448.005-10.709.001-19.573-8.454-19.972-19.237zm40.638-21.435c28.981-2.14 82.959-10.718 116.482-44.249 15.354-15.357 22.817-30.512 22.817-46.329 0-2.568-.315-6.165-.985-10.154-21.22 13.448-44.618 31.476-64.189 54.411-3.956 4.636-9.572 7.018-15.223 7.018-4.592.001-9.207-1.572-12.973-4.786-8.402-7.17-9.401-19.794-2.231-28.196 22.255-26.08 48.302-46.399 71.976-61.547-6.538-2.846-15.255-5.406-25.256-5.469-.102-.001-.204-.001-.306-.001-15.516 0-30.526 7.468-45.876 22.822-33.505 33.512-42.09 87.467-44.236 116.48z"/></svg>